<svg xmlns="http://www.w3.org/2000/svg" viewBox="0 0 124.3 124.3"><defs><style>.cls-1{fill:#1d1d1b;}</style></defs><g id="Capa_2" data-name="Capa 2"><g id="Capa_1-2" data-name="Capa 1"><path class="cls-1" d="M123,52.08H85.6l26.24-26.24a1.35,1.35,0,0,0,0-1.9L99.92,12A1.35,1.35,0,0,0,98,12L71.61,38.45V1.34A1.34,1.34,0,0,0,70.27,0H53.42a1.34,1.34,0,0,0-1.34,1.34V38.7h0v14H38.42l0,0H1.34A1.34,1.34,0,0,0,0,54V70.88a1.34,1.34,0,0,0,1.34,1.34H38.7L12.46,98.45a1.35,1.35,0,0,0,0,1.9l11.91,11.92a1.35,1.35,0,0,0,1.9,0L52.69,85.85V123A1.34,1.34,0,0,0,54,124.3H70.88A1.34,1.34,0,0,0,72.22,123V85.6l26.23,26.24a1.35,1.35,0,0,0,1.9,0l11.92-11.92a1.35,1.35,0,0,0,0-1.9L85.85,71.61H123a1.34,1.34,0,0,0,1.35-1.34V53.42A1.34,1.34,0,0,0,123,52.08Z"/></g></g></svg>