<svg xmlns="http://www.w3.org/2000/svg" viewBox="0 0 820 600" preserveAspectRatio="xMidYMid meet">
  <defs>
    <linearGradient id="harvestSky" x1="0" y1="0" x2="0" y2="1">
      <stop offset="0%" stop-color="#f1f8e9" />
      <stop offset="100%" stop-color="#fffde7" />
    </linearGradient>
    <linearGradient id="harvestField" x1="0" y1="0" x2="0" y2="1">
      <stop offset="0%" stop-color="#aed581" />
      <stop offset="100%" stop-color="#7cb342" />
    </linearGradient>
    <linearGradient id="basket" x1="0" y1="0" x2="1" y2="1">
      <stop offset="0%" stop-color="#f3e5ab" />
      <stop offset="100%" stop-color="#b68d40" />
    </linearGradient>
    <radialGradient id="harvestOrange" cx="0.35" cy="0.3" r="0.85">
      <stop offset="0%" stop-color="#fff8e1" />
      <stop offset="65%" stop-color="#ffb74d" />
      <stop offset="100%" stop-color="#ef6c00" />
    </radialGradient>
    <linearGradient id="leafHarvest" x1="0" y1="0" x2="1" y2="1">
      <stop offset="0%" stop-color="#9ccc65" />
      <stop offset="100%" stop-color="#2e7d32" />
    </linearGradient>
  </defs>
  <rect width="820" height="600" fill="url(#harvestSky)" />
  <path d="M0 360 C 200 300 340 320 540 360 C 660 384 740 380 820 360 L820 600 L0 600 Z" fill="url(#harvestField)" />
  <g transform="translate(120,300)">
    <ellipse cx="130" cy="200" rx="140" ry="40" fill="rgba(0,0,0,0.12)" />
    <ellipse cx="430" cy="200" rx="140" ry="36" fill="rgba(0,0,0,0.1)" />
    <g transform="translate(0,0)">
      <path d="M30 60 h200 a30 30 0 0 1 30 30 v80 a60 60 0 0 1 -60 60 h-170 a30 30 0 0 1 -30 -30 v-80 a60 60 0 0 1 60 -60z" fill="url(#basket)" stroke="#8d6e63" stroke-width="8" opacity="0.95" />
      <g transform="translate(60,40)">
        <circle cx="0" cy="0" r="36" fill="url(#harvestOrange)" />
        <path d="M-18 -30 C 0 -46 32 -44 44 -26" fill="url(#leafHarvest)" />
      </g>
      <g transform="translate(130,26)">
        <circle cx="0" cy="0" r="40" fill="url(#harvestOrange)" />
        <path d="M-22 -32 C 0 -56 40 -54 58 -32" fill="url(#leafHarvest)" />
      </g>
      <g transform="translate(190,44)">
        <circle cx="0" cy="0" r="34" fill="url(#harvestOrange)" />
        <path d="M-18 -30 C 0 -50 34 -48 48 -28" fill="url(#leafHarvest)" />
      </g>
      <g transform="translate(90,80)">
        <circle cx="0" cy="0" r="32" fill="url(#harvestOrange)" />
      </g>
      <g transform="translate(150,100)">
        <circle cx="0" cy="0" r="30" fill="url(#harvestOrange)" />
      </g>
      <g transform="translate(210,90)">
        <circle cx="0" cy="0" r="28" fill="url(#harvestOrange)" />
      </g>
    </g>
    <g transform="translate(300,10)">
      <path d="M30 60 h200 a30 30 0 0 1 30 30 v80 a60 60 0 0 1 -60 60 h-170 a30 30 0 0 1 -30 -30 v-80 a60 60 0 0 1 60 -60z" fill="url(#basket)" stroke="#8d6e63" stroke-width="8" opacity="0.9" />
      <g transform="translate(60,40)">
        <circle cx="0" cy="0" r="36" fill="url(#harvestOrange)" />
        <path d="M-18 -30 C 0 -46 32 -44 44 -26" fill="url(#leafHarvest)" />
      </g>
      <g transform="translate(120,26)">
        <circle cx="0" cy="0" r="38" fill="url(#harvestOrange)" />
        <path d="M-20 -32 C 4 -54 40 -54 56 -34" fill="url(#leafHarvest)" />
      </g>
      <g transform="translate(180,44)">
        <circle cx="0" cy="0" r="34" fill="url(#harvestOrange)" />
        <path d="M-18 -30 C 0 -50 34 -48 48 -28" fill="url(#leafHarvest)" />
      </g>
      <g transform="translate(90,78)">
        <circle cx="0" cy="0" r="32" fill="url(#harvestOrange)" />
      </g>
      <g transform="translate(150,98)">
        <circle cx="0" cy="0" r="30" fill="url(#harvestOrange)" />
      </g>
      <g transform="translate(210,88)">
        <circle cx="0" cy="0" r="28" fill="url(#harvestOrange)" />
      </g>
    </g>
  </g>
  <g transform="translate(520,180)" opacity="0.7">
    <path d="M0 0 C 40 -20 80 -20 120 0" stroke="#f57c00" stroke-width="10" fill="none" stroke-linecap="round" />
    <path d="M20 20 C 60 0 100 0 140 20" stroke="#f9a825" stroke-width="8" fill="none" stroke-linecap="round" />
    <path d="M40 40 C 80 20 120 20 160 40" stroke="#ffcc80" stroke-width="6" fill="none" stroke-linecap="round" />
  </g>
</svg>
