<svg xmlns="http://www.w3.org/2000/svg" viewBox="0 0 99.44 99.48"><defs><style>.cls-1{fill:#070707;}</style></defs><g id="Capa_2" data-name="Capa 2"><g id="Capa_1-2" data-name="Capa 1"><path class="cls-1" d="M16.12,83.32a15.39,15.39,0,1,1,21.77,0A15.4,15.4,0,0,1,16.12,83.32ZM35.91,13.67s-20,26.59-30.82,42.26S3.34,86.33,8.31,91.3s19.54,13.89,35.2,3S85.77,63.53,85.77,63.53s28.65-24.78,3-50.45c-.42-.41-.84-.79-1.27-1.14s-.72-.84-1.13-1.26C60.69-15,35.91,13.67,35.91,13.67Zm46.25,3.61A27.19,27.19,0,0,1,43.71,55.73,27.19,27.19,0,0,1,82.16,17.28Z"/></g></g></svg>